<mxfile host="app.diagrams.net" modified="2024-04-24T13:28:04.660Z" agent="Mozilla/5.0 (Windows NT 10.0; Win64; x64; rv:125.0) Gecko/20100101 Firefox/125.0" etag="j0HSQxtRjErTjnlmTjB4" version="24.2.8" type="github">
  <diagram name="Seite-1" id="Lj3RmBoYemo5wMBXR7T-">
    <mxGraphModel dx="1728" dy="922" grid="1" gridSize="10" guides="1" tooltips="1" connect="1" arrows="1" fold="1" page="1" pageScale="1" pageWidth="1654" pageHeight="1169" math="0" shadow="0">
      <root>
        <mxCell id="0" />
        <mxCell id="1" parent="0" />
        <mxCell id="BmRe0CwLIyu7bXr3vCcB-1" value="&lt;div&gt;Symptom/&lt;/div&gt;&lt;div&gt;PhÃ¤nomen&lt;br&gt;&lt;/div&gt;" style="text;html=1;align=center;verticalAlign=middle;whiteSpace=wrap;rounded=0;" vertex="1" parent="1">
          <mxGeometry x="320" y="40" width="60" height="30" as="geometry" />
        </mxCell>
        <mxCell id="BmRe0CwLIyu7bXr3vCcB-2" value="Vorhofohr" style="rounded=1;whiteSpace=wrap;html=1;" vertex="1" parent="1">
          <mxGeometry x="50" y="120" width="120" height="60" as="geometry" />
        </mxCell>
        <mxCell id="BmRe0CwLIyu7bXr3vCcB-3" value="Verschluss" style="rounded=1;whiteSpace=wrap;html=1;" vertex="1" parent="1">
          <mxGeometry x="290" y="120" width="120" height="60" as="geometry" />
        </mxCell>
        <mxCell id="BmRe0CwLIyu7bXr3vCcB-4" value="Region" style="text;html=1;align=center;verticalAlign=middle;whiteSpace=wrap;rounded=0;" vertex="1" parent="1">
          <mxGeometry x="80" y="40" width="60" height="30" as="geometry" />
        </mxCell>
        <mxCell id="BmRe0CwLIyu7bXr3vCcB-5" value="&lt;div&gt;Behandlung/&lt;br&gt;&lt;/div&gt;" style="text;html=1;align=center;verticalAlign=middle;whiteSpace=wrap;rounded=0;" vertex="1" parent="1">
          <mxGeometry x="520" y="40" width="60" height="30" as="geometry" />
        </mxCell>
        <mxCell id="BmRe0CwLIyu7bXr3vCcB-6" value="&lt;div&gt;Antithrombotische&lt;/div&gt;&lt;div&gt;Therapie&lt;br&gt;&lt;/div&gt;" style="rounded=1;whiteSpace=wrap;html=1;" vertex="1" parent="1">
          <mxGeometry x="500" y="120" width="120" height="60" as="geometry" />
        </mxCell>
        <mxCell id="BmRe0CwLIyu7bXr3vCcB-7" value="&lt;div&gt;ASS&lt;/div&gt;&lt;div&gt;Anmerkungen: [ ... ]&lt;/div&gt;" style="rounded=1;whiteSpace=wrap;html=1;" vertex="1" parent="1">
          <mxGeometry x="960" y="119" width="120" height="60" as="geometry" />
        </mxCell>
        <mxCell id="BmRe0CwLIyu7bXr3vCcB-8" value="&lt;div&gt;OAK&lt;/div&gt;&lt;div&gt;Anmerkungen: [ ... ]&lt;/div&gt;" style="rounded=1;whiteSpace=wrap;html=1;" vertex="1" parent="1">
          <mxGeometry x="960" y="239" width="120" height="60" as="geometry" />
        </mxCell>
        <mxCell id="BmRe0CwLIyu7bXr3vCcB-9" value="&lt;div&gt;Clopidogrel&lt;/div&gt;&lt;div&gt;Anmerkungen: [ ... ]&lt;br&gt;&lt;/div&gt;" style="rounded=1;whiteSpace=wrap;html=1;" vertex="1" parent="1">
          <mxGeometry x="960" y="369" width="120" height="60" as="geometry" />
        </mxCell>
        <mxCell id="BmRe0CwLIyu7bXr3vCcB-10" value="Medikament" style="text;html=1;align=center;verticalAlign=middle;whiteSpace=wrap;rounded=0;" vertex="1" parent="1">
          <mxGeometry x="973" y="40" width="60" height="30" as="geometry" />
        </mxCell>
        <mxCell id="BmRe0CwLIyu7bXr3vCcB-11" value="&lt;div&gt;Blutdruck (gering)&lt;/div&gt;&lt;div&gt;[subtype Blutdruck]&lt;br&gt;&lt;/div&gt;" style="rounded=1;whiteSpace=wrap;html=1;" vertex="1" parent="1">
          <mxGeometry x="707" y="260" width="120" height="60" as="geometry" />
        </mxCell>
        <mxCell id="BmRe0CwLIyu7bXr3vCcB-12" value="&lt;div&gt;Blutdruck (hoch)&lt;/div&gt;&lt;div&gt;[subtype Blutdruck]&lt;/div&gt;" style="rounded=1;whiteSpace=wrap;html=1;" vertex="1" parent="1">
          <mxGeometry x="707" y="380" width="120" height="60" as="geometry" />
        </mxCell>
        <mxCell id="BmRe0CwLIyu7bXr3vCcB-14" value="Constraint" style="text;html=1;align=center;verticalAlign=middle;whiteSpace=wrap;rounded=0;" vertex="1" parent="1">
          <mxGeometry x="727" y="40" width="60" height="30" as="geometry" />
        </mxCell>
        <mxCell id="BmRe0CwLIyu7bXr3vCcB-17" value="" style="endArrow=none;html=1;rounded=0;exitX=1;exitY=0.5;exitDx=0;exitDy=0;entryX=0;entryY=0.5;entryDx=0;entryDy=0;" edge="1" parent="1" source="BmRe0CwLIyu7bXr3vCcB-2" target="BmRe0CwLIyu7bXr3vCcB-3">
          <mxGeometry width="50" height="50" relative="1" as="geometry">
            <mxPoint x="580" y="380" as="sourcePoint" />
            <mxPoint x="630" y="330" as="targetPoint" />
          </mxGeometry>
        </mxCell>
        <mxCell id="BmRe0CwLIyu7bXr3vCcB-18" value="" style="endArrow=none;html=1;rounded=0;" edge="1" parent="1">
          <mxGeometry width="50" height="50" relative="1" as="geometry">
            <mxPoint x="410" y="150" as="sourcePoint" />
            <mxPoint x="500" y="150" as="targetPoint" />
          </mxGeometry>
        </mxCell>
        <mxCell id="BmRe0CwLIyu7bXr3vCcB-19" value="" style="endArrow=none;html=1;rounded=0;exitX=1;exitY=0.5;exitDx=0;exitDy=0;entryX=0;entryY=0.5;entryDx=0;entryDy=0;" edge="1" parent="1" source="BmRe0CwLIyu7bXr3vCcB-6" target="BmRe0CwLIyu7bXr3vCcB-32">
          <mxGeometry width="50" height="50" relative="1" as="geometry">
            <mxPoint x="617" y="149.58" as="sourcePoint" />
            <mxPoint x="700" y="149" as="targetPoint" />
          </mxGeometry>
        </mxCell>
        <mxCell id="BmRe0CwLIyu7bXr3vCcB-20" value="" style="endArrow=none;html=1;rounded=0;exitX=1;exitY=0.5;exitDx=0;exitDy=0;entryX=0;entryY=0.5;entryDx=0;entryDy=0;" edge="1" parent="1" source="BmRe0CwLIyu7bXr3vCcB-11" target="BmRe0CwLIyu7bXr3vCcB-7">
          <mxGeometry width="50" height="50" relative="1" as="geometry">
            <mxPoint x="853" y="150" as="sourcePoint" />
            <mxPoint x="940" y="149.58" as="targetPoint" />
          </mxGeometry>
        </mxCell>
        <mxCell id="BmRe0CwLIyu7bXr3vCcB-21" value="" style="endArrow=none;html=1;rounded=0;entryX=0.5;entryY=0;entryDx=0;entryDy=0;exitX=0.5;exitY=1;exitDx=0;exitDy=0;" edge="1" parent="1" source="BmRe0CwLIyu7bXr3vCcB-32" target="BmRe0CwLIyu7bXr3vCcB-12">
          <mxGeometry width="50" height="50" relative="1" as="geometry">
            <mxPoint x="640" y="270" as="sourcePoint" />
            <mxPoint x="743" y="200" as="targetPoint" />
            <Array as="points">
              <mxPoint x="670" y="290" />
            </Array>
          </mxGeometry>
        </mxCell>
        <mxCell id="BmRe0CwLIyu7bXr3vCcB-22" value="" style="endArrow=none;html=1;rounded=0;exitX=1;exitY=0.5;exitDx=0;exitDy=0;entryX=0;entryY=0.5;entryDx=0;entryDy=0;" edge="1" parent="1" source="BmRe0CwLIyu7bXr3vCcB-12" target="BmRe0CwLIyu7bXr3vCcB-7">
          <mxGeometry width="50" height="50" relative="1" as="geometry">
            <mxPoint x="800" y="190" as="sourcePoint" />
            <mxPoint x="947" y="280" as="targetPoint" />
          </mxGeometry>
        </mxCell>
        <mxCell id="BmRe0CwLIyu7bXr3vCcB-23" value="" style="endArrow=none;html=1;rounded=0;exitX=1;exitY=0.5;exitDx=0;exitDy=0;entryX=0;entryY=0.5;entryDx=0;entryDy=0;" edge="1" parent="1" source="BmRe0CwLIyu7bXr3vCcB-11" target="BmRe0CwLIyu7bXr3vCcB-8">
          <mxGeometry width="50" height="50" relative="1" as="geometry">
            <mxPoint x="837" y="280" as="sourcePoint" />
            <mxPoint x="950" y="160" as="targetPoint" />
          </mxGeometry>
        </mxCell>
        <mxCell id="BmRe0CwLIyu7bXr3vCcB-24" value="" style="endArrow=none;html=1;rounded=0;entryX=0;entryY=0.5;entryDx=0;entryDy=0;" edge="1" parent="1" target="BmRe0CwLIyu7bXr3vCcB-9">
          <mxGeometry width="50" height="50" relative="1" as="geometry">
            <mxPoint x="827" y="290" as="sourcePoint" />
            <mxPoint x="940" y="270" as="targetPoint" />
          </mxGeometry>
        </mxCell>
        <mxCell id="BmRe0CwLIyu7bXr3vCcB-25" value="" style="endArrow=none;html=1;rounded=0;exitX=1;exitY=0.5;exitDx=0;exitDy=0;" edge="1" parent="1" source="BmRe0CwLIyu7bXr3vCcB-12">
          <mxGeometry width="50" height="50" relative="1" as="geometry">
            <mxPoint x="837" y="160" as="sourcePoint" />
            <mxPoint x="960" y="400" as="targetPoint" />
          </mxGeometry>
        </mxCell>
        <mxCell id="BmRe0CwLIyu7bXr3vCcB-32" value="&lt;div&gt;Blutdruck&lt;br&gt;&lt;/div&gt;" style="rounded=1;whiteSpace=wrap;html=1;" vertex="1" parent="1">
          <mxGeometry x="707" y="119" width="120" height="60" as="geometry" />
        </mxCell>
        <mxCell id="BmRe0CwLIyu7bXr3vCcB-33" value="" style="endArrow=none;html=1;rounded=0;entryX=0.5;entryY=1;entryDx=0;entryDy=0;exitX=0.5;exitY=0;exitDx=0;exitDy=0;" edge="1" parent="1" source="BmRe0CwLIyu7bXr3vCcB-11" target="BmRe0CwLIyu7bXr3vCcB-32">
          <mxGeometry width="50" height="50" relative="1" as="geometry">
            <mxPoint x="580" y="380" as="sourcePoint" />
            <mxPoint x="630" y="330" as="targetPoint" />
          </mxGeometry>
        </mxCell>
        <mxCell id="BmRe0CwLIyu7bXr3vCcB-37" value="Dosierung" style="text;html=1;align=center;verticalAlign=middle;whiteSpace=wrap;rounded=0;" vertex="1" parent="1">
          <mxGeometry x="1160" y="40" width="60" height="30" as="geometry" />
        </mxCell>
      </root>
    </mxGraphModel>
  </diagram>
</mxfile>
